<svg xmlns="http://www.w3.org/1000/svg" width="192" height="192" fill="#37c205" viewBox="0 0 256 256"><rect width="256" height="256" fill="none"></rect><path d="M216,112c0,48.6-56,120-88,120S40,160.6,40,112a88,88,0,0,1,176,0Z" fill="none" stroke="#37c205" stroke-linecap="round" stroke-linejoin="round" stroke-width="24"></path><path d="M104,140a24.1,24.1,0,0,1-24-24v-4a24.1,24.1,0,0,1,24,24Z" stroke="#37c205" stroke-linecap="round" stroke-linejoin="round" stroke-width="24"></path><path d="M152,140v-4a24.1,24.1,0,0,1,24-24v4a24.1,24.1,0,0,1-24,24Z" stroke="#37c205" stroke-linecap="round" stroke-linejoin="round" stroke-width="24"></path><line x1="116" y1="184" x2="140" y2="184" fill="none" stroke="#37c205" stroke-linecap="round" stroke-linejoin="round" stroke-width="24"></line></svg>